# xmcd CD database file
#
# Track frame offsets:
#	150
#	17152
#	44022
#	59895
#	80955
#	102390
#	128277
#	150407
#	169785
#
# Disc length: 2583 seconds
#
# Revision: 0
# Processed by: cddbd v1.5.1PL0 Copyright (c) Steve Scherf et al.
# Submitted via: CDex 1.51
#
DISCID=760a1509
DTITLE=Heartsfield - Collectors Item
DYEAR=2001
DGENRE=Country Rock
TTITLE0=I Like it a Lot
TTITLE1=Southern Girl
TTITLE2=All For Nothing
TTITLE3=Another Night Alone
TTITLE4=Let the Music Play
TTITLE5=Lost Love
TTITLE6=With These Tools
TTITLE7=Rock and Roll Farm
TTITLE8=Seeds of Doubt
EXTD=YEAR: 2001
EXTT0=
EXTT1=
EXTT2=
EXTT3=
EXTT4=
EXTT5=
EXTT6=
EXTT7=
EXTT8=
PLAYORDER=
